<svg width="408" height="233" viewBox="0 0 408 233" fill="none" xmlns="http://www.w3.org/2000/svg">
<path d="M29.1383 106.125H19.5592C16.901 106.125 14.7462 103.97 14.7462 101.312V76.0266C14.7462 73.3684 16.901 71.2136 19.5592 71.2136H29.1383V106.125Z" stroke="#3C68B9" stroke-width="3.71333" stroke-miterlimit="10"/>
<path d="M24.3722 125.906H350.82C369.854 125.906 385.288 141.339 385.288 160.378V186.713C385.288 193.006 380.184 198.11 373.887 198.11H35.769C29.4754 198.11 24.3722 193.006 24.3722 186.713" fill="#EEECEC"/>
<path d="M311.749 54.7265H24.3722V125.906H352.36L311.749 54.7265Z" fill="#EEECEC"/>
<mask id="mask0_4_2" style="mask-type:alpha" maskUnits="userSpaceOnUse" x="24" y="146" width="362" height="25">
<path d="M24.2314 146.37H385.787V170.401H24.2314V146.37Z" fill="black"/>
</mask>
<g mask="url(#mask0_4_2)">
<mask id="mask1_4_2" style="mask-type:alpha" maskUnits="userSpaceOnUse" x="24" y="125" width="362" height="74">
<path d="M24.3722 125.906V186.709C24.3722 193.006 29.4754 198.11 35.769 198.11H373.887C380.184 198.11 385.288 193.006 385.288 186.709V160.374C385.288 141.339 369.854 125.906 350.82 125.906H24.3722Z" fill="black"/>
</mask>
<g mask="url(#mask1_4_2)">
<path d="M21.5476 170.102H387.89V146.566H21.5476V170.102Z" fill="#3C68B9"/>
</g>
</g>
<mask id="mask2_4_2" style="mask-type:alpha" maskUnits="userSpaceOnUse" x="24" y="179" width="18" height="20">
<path d="M24.2314 179.139H41.7084V198.801H24.2314V179.139Z" fill="black"/>
</mask>
<g mask="url(#mask2_4_2)">
<mask id="mask3_4_2" style="mask-type:alpha" maskUnits="userSpaceOnUse" x="24" y="125" width="362" height="74">
<path d="M24.3722 125.906V186.709C24.3722 193.006 29.4754 198.11 35.769 198.11H373.887C380.184 198.11 385.288 193.006 385.288 186.709V160.374C385.288 141.339 369.854 125.906 350.82 125.906H24.3722Z" fill="black"/>
</mask>
<g mask="url(#mask3_4_2)">
<path d="M34.3438 208.265H18.1981C14.6395 208.265 11.7509 205.38 11.7509 201.817V185.667C11.7509 182.109 14.6395 179.22 18.1981 179.22H34.3438C37.9024 179.22 40.7868 182.109 40.7868 185.667V201.817C40.7868 205.38 37.9024 208.265 34.3438 208.265Z" fill="#90A6FF"/>
</g>
</g>
<mask id="mask4_4_2" style="mask-type:alpha" maskUnits="userSpaceOnUse" x="367" y="179" width="19" height="20">
<path d="M367.218 179.139H385.787V198.801H367.218V179.139Z" fill="black"/>
</mask>
<g mask="url(#mask4_4_2)">
<mask id="mask5_4_2" style="mask-type:alpha" maskUnits="userSpaceOnUse" x="24" y="125" width="362" height="74">
<path d="M24.3722 125.906V186.709C24.3722 193.006 29.4754 198.11 35.769 198.11H373.887C380.184 198.11 385.288 193.006 385.288 186.709V160.374C385.288 141.339 369.854 125.906 350.82 125.906H24.3722Z" fill="black"/>
</mask>
<g mask="url(#mask5_4_2)">
<path d="M390.647 208.265H374.501C370.942 208.265 368.054 205.38 368.054 201.817V185.667C368.054 182.109 370.942 179.22 374.501 179.22H390.647C394.205 179.22 397.09 182.109 397.09 185.667V201.817C397.09 205.38 394.205 208.265 390.647 208.265Z" fill="#90A6FF"/>
</g>
</g>
<path d="M128.296 198.02H281.142V188.339H128.296V198.02Z" fill="#3C68B9"/>
<path d="M300.689 35.0479H24.3722V54.7266H311.749V46.1075C311.749 39.9974 306.795 35.0479 300.689 35.0479Z" fill="#EEECEC"/>
<path d="M246.619 0.439468H36.9893C30.0215 0.439468 24.3722 6.08877 24.3722 13.0565V35.0479H259.236V13.0565C259.236 6.08877 253.587 0.439468 246.619 0.439468Z" fill="#EEECEC"/>
<path d="M267.335 35.0479H294.186V30.2477H267.335V35.0479Z" fill="#01064D"/>
<path d="M294.186 30.2476H267.335V26.7702C267.335 19.3544 273.347 13.3424 280.758 13.3424C288.174 13.3424 294.186 19.3544 294.186 26.7702" fill="#90A6FF"/>
<path d="M279.867 198.11C279.867 176.012 297.775 158.099 319.864 158.099C341.954 158.099 359.866 176.012 359.866 198.11" fill="#EEECEC"/>
<path d="M286.036 198.11C286.036 179.421 301.18 164.269 319.864 164.269C338.549 164.269 353.696 179.421 353.696 198.11" fill="#B3C5F9"/>
<path d="M349.028 198.11C349.028 214.213 335.976 227.269 319.873 227.269C303.77 227.269 290.717 214.213 290.717 198.11C290.717 182.002 303.77 168.946 319.873 168.946C335.976 168.946 349.028 182.002 349.028 198.11Z" fill="#01064D"/>
<path d="M337.072 198.11C337.072 207.612 329.371 215.314 319.873 215.314C310.375 215.314 302.673 207.612 302.673 198.11C302.673 188.607 310.375 180.906 319.873 180.906C329.371 180.906 337.072 188.607 337.072 198.11Z" fill="#EEECEC"/>
<path d="M49.4784 198.02C49.4784 175.922 67.3863 158.01 89.4758 158.01C111.565 158.01 129.473 175.922 129.473 198.02" fill="#EEECEC"/>
<path d="M55.644 198.02C55.644 179.331 70.7913 164.18 89.4758 164.18C108.16 164.18 123.303 179.331 123.303 198.02" fill="#B3C5F9"/>
<path d="M118.635 198.02C118.635 214.123 105.583 227.18 89.4843 227.18C73.3812 227.18 60.3289 214.123 60.3289 198.02C60.3289 181.913 73.3812 168.856 89.4843 168.856C105.583 168.856 118.635 181.913 118.635 198.02Z" fill="#01064D"/>
<path d="M106.684 198.02C106.684 207.522 98.9823 215.224 89.48 215.224C79.982 215.224 72.2846 207.522 72.2846 198.02C72.2846 188.518 79.982 180.816 89.48 180.816C98.9823 180.816 106.684 188.518 106.684 198.02Z" fill="#EEECEC"/>
<path d="M24.3722 125.906H262.36V118.128H24.3722V125.906Z" fill="#3C68B9"/>
<path d="M217.221 157.122C217.221 173.063 204.301 185.983 188.368 185.983C172.432 185.983 159.512 173.063 159.512 157.122C159.512 141.186 172.432 128.266 188.368 128.266C204.301 128.266 217.221 141.186 217.221 157.122Z" fill="#EEECEC"/>
<path d="M204.915 149.894H195.597V140.571C195.597 139.394 194.645 138.442 193.467 138.442H183.265C182.088 138.442 181.136 139.394 181.136 140.571V149.894H171.817C170.64 149.894 169.688 150.846 169.688 152.019V162.225C169.688 163.403 170.64 164.355 171.817 164.355H181.136V173.678C181.136 174.851 182.088 175.807 183.265 175.807H193.467C194.645 175.807 195.597 174.851 195.597 173.678V164.355H204.915C206.089 164.355 207.044 163.403 207.044 162.225V152.019C207.044 150.846 206.089 149.894 204.915 149.894Z" fill="#90A6FF"/>
<mask id="mask6_4_2" style="mask-type:alpha" maskUnits="userSpaceOnUse" x="24" y="0" width="25" height="18">
<path d="M24.2314 0H48.2623V17.477H24.2314V0Z" fill="black"/>
</mask>
<g mask="url(#mask6_4_2)">
<mask id="mask7_4_2" style="mask-type:alpha" maskUnits="userSpaceOnUse" x="24" y="0" width="236" height="36">
<path d="M36.9935 0.439468C30.0215 0.439468 24.3722 6.08877 24.3722 13.0565V35.0479H259.236V13.0565C259.236 6.08877 253.587 0.439468 246.619 0.439468H36.9935Z" fill="black"/>
</mask>
<g mask="url(#mask7_4_2)">
<path d="M41.3969 17.1229H25.2555C21.6926 17.1229 18.8083 14.2385 18.8083 10.6799V-5.47436C18.8083 -9.03291 21.6926 -11.9173 25.2555 -11.9173H41.3969C44.9598 -11.9173 47.8441 -9.03291 47.8441 -5.47436V10.6799C47.8441 14.2385 44.9598 17.1229 41.3969 17.1229Z" fill="#90A6FF"/>
</g>
</g>
<mask id="mask8_4_2" style="mask-type:alpha" maskUnits="userSpaceOnUse" x="237" y="0" width="24" height="18">
<path d="M237.232 0H260.171V17.477H237.232V0Z" fill="black"/>
</mask>
<g mask="url(#mask8_4_2)">
<mask id="mask9_4_2" style="mask-type:alpha" maskUnits="userSpaceOnUse" x="24" y="0" width="236" height="36">
<path d="M36.9936 0.439468C30.0216 0.439468 24.3723 6.08877 24.3723 13.0565V35.0479H259.236V13.0565C259.236 6.08877 253.587 0.439468 246.619 0.439468H36.9936Z" fill="black"/>
</mask>
<g mask="url(#mask9_4_2)">
<path d="M260.538 17.3959H244.392C240.834 17.3959 237.945 14.5115 237.945 10.9487V-5.20128C237.945 -8.7641 240.834 -11.6485 244.392 -11.6485H260.538C264.096 -11.6485 266.981 -8.7641 266.981 -5.20128V10.9487C266.981 14.5115 264.096 17.3959 260.538 17.3959Z" fill="#90A6FF"/>
</g>
</g>
<path d="M24.3722 35.0479H259.236V28.5537H24.3722V35.0479Z" fill="#3C68B9"/>
<path d="M241.529 102.699H40.0443C36.3322 102.699 33.3241 99.6948 33.3241 95.9827V67.0748C33.3241 63.3626 36.3322 60.3588 40.0443 60.3588H241.529C245.237 60.3588 248.249 63.3626 248.249 67.0748V95.9827C248.249 99.6948 245.237 102.699 241.529 102.699Z" fill="#B7C8FB"/>
<mask id="mask10_4_2" style="mask-type:alpha" maskUnits="userSpaceOnUse" x="32" y="60" width="105" height="44">
<path d="M32.9699 60.0772H136.74V103.77H32.9699V60.0772Z" fill="black"/>
</mask>
<g mask="url(#mask10_4_2)">
<mask id="mask11_4_2" style="mask-type:alpha" maskUnits="userSpaceOnUse" x="33" y="60" width="216" height="43">
<path d="M40.0443 60.3588C36.3322 60.3588 33.3241 63.3626 33.3241 67.0748V95.9827C33.3241 99.6948 36.3322 102.699 40.0443 102.699H241.529C245.241 102.699 248.249 99.6948 248.249 95.9827V67.0748C248.249 63.3626 245.241 60.3588 241.529 60.3588H40.0443Z" fill="black"/>
</mask>
<g mask="url(#mask11_4_2)">
<path d="M136.006 -5.01354L23.6938 153.572L3.57562 139.317L115.892 -19.2691L136.006 -5.01354Z" fill="#DEE6F8"/>
</g>
</g>
<mask id="mask12_4_2" style="mask-type:alpha" maskUnits="userSpaceOnUse" x="96" y="60" width="130" height="44">
<path d="M96.3241 60.0772H225.217V103.77H96.3241V60.0772Z" fill="black"/>
</mask>
<g mask="url(#mask12_4_2)">
<mask id="mask13_4_2" style="mask-type:alpha" maskUnits="userSpaceOnUse" x="33" y="60" width="216" height="43">
<path d="M40.0443 60.3588C36.3322 60.3588 33.3241 63.3626 33.3241 67.0748V95.9827C33.3241 99.6948 36.3322 102.699 40.0443 102.699H241.529C245.241 102.699 248.249 99.6948 248.249 95.9827V67.0748C248.249 63.3626 245.241 60.3588 241.529 60.3588H40.0443Z" fill="black"/>
</mask>
<g mask="url(#mask13_4_2)">
<path d="M224.944 11.4778L112.628 170.064L96.9982 158.987L209.31 0.40107L224.944 11.4778Z" fill="#DEE6F8"/>
</g>
</g>
<mask id="mask14_4_2" style="mask-type:alpha" maskUnits="userSpaceOnUse" x="40" y="60" width="123" height="44">
<path d="M40.6161 60.0772H162.955V103.77H40.6161V60.0772Z" fill="black"/>
</mask>
<g mask="url(#mask14_4_2)">
<mask id="mask15_4_2" style="mask-type:alpha" maskUnits="userSpaceOnUse" x="33" y="60" width="216" height="43">
<path d="M40.0443 60.3588C36.3322 60.3588 33.3241 63.3626 33.3241 67.0748V95.9827C33.3241 99.6948 36.3322 102.699 40.0443 102.699H241.529C245.241 102.699 248.249 99.6948 248.249 95.9827V67.0748C248.249 63.3626 245.241 60.3588 241.529 60.3588H40.0443Z" fill="black"/>
</mask>
<g mask="url(#mask15_4_2)">
<path d="M162.366 1.95421L50.0544 160.544L41.6487 154.588L153.961 -3.99804L162.366 1.95421Z" fill="#DEE6F8"/>
</g>
</g>
<mask id="mask16_4_2" style="mask-type:alpha" maskUnits="userSpaceOnUse" x="114" y="60" width="124" height="44">
<path d="M114.893 60.0772H237.232V103.77H114.893V60.0772Z" fill="black"/>
</mask>
<g mask="url(#mask16_4_2)">
<mask id="mask17_4_2" style="mask-type:alpha" maskUnits="userSpaceOnUse" x="33" y="60" width="216" height="43">
<path d="M40.0443 60.3588C36.3322 60.3588 33.3241 63.3626 33.3241 67.0748V95.9827C33.3241 99.6948 36.3322 102.699 40.0443 102.699H241.529C245.241 102.699 248.249 99.6948 248.249 95.9827V67.0748C248.249 63.3626 245.241 60.3588 241.529 60.3588H40.0443Z" fill="black"/>
</mask>
<g mask="url(#mask17_4_2)">
<path d="M236.477 24.7562L124.165 183.342L115.76 177.386L228.071 18.7997L236.477 24.7562Z" fill="#DEE6F8"/>
</g>
</g>
<mask id="mask18_4_2" style="mask-type:alpha" maskUnits="userSpaceOnUse" x="158" y="60" width="92" height="44">
<path d="M158.586 60.0772H249.248V103.77H158.586V60.0772Z" fill="black"/>
</mask>
<g mask="url(#mask18_4_2)">
<mask id="mask19_4_2" style="mask-type:alpha" maskUnits="userSpaceOnUse" x="33" y="60" width="216" height="43">
<path d="M40.0443 60.3588C36.3322 60.3588 33.3241 63.3626 33.3241 67.0748V95.9827C33.3241 99.6948 36.3322 102.699 40.0443 102.699H241.529C245.241 102.699 248.249 99.6948 248.249 95.9827V67.0748C248.249 63.3626 245.241 60.3588 241.529 60.3588H40.0443Z" fill="black"/>
</mask>
<g mask="url(#mask19_4_2)">
<path d="M280.033 28.0118L167.717 186.598L159.311 180.645L271.627 22.0596L280.033 28.0118Z" fill="#DEE6F8"/>
</g>
</g>
<path d="M280.046 133.676H265.479C264.668 133.676 264.011 133.019 264.011 132.208V130.647C264.011 129.836 264.668 129.179 265.479 129.179H280.046C280.857 129.179 281.514 129.836 281.514 130.647V132.208C281.514 133.019 280.857 133.676 280.046 133.676Z" fill="#01064D"/>
<path d="M263.034 60.3588H314.961L352.36 125.906H263.034C259.812 125.906 257.201 123.295 257.201 120.073V66.1958C257.201 62.9701 259.812 60.3588 263.034 60.3588Z" fill="#B7C8FB"/>
<mask id="mask20_4_2" style="mask-type:alpha" maskUnits="userSpaceOnUse" x="256" y="60" width="79" height="67">
<path d="M256.894 60.0772H334.448V126.708H256.894V60.0772Z" fill="black"/>
</mask>
<g mask="url(#mask20_4_2)">
<mask id="mask21_4_2" style="mask-type:alpha" maskUnits="userSpaceOnUse" x="257" y="60" width="96" height="66">
<path d="M263.038 60.3588C259.817 60.3588 257.201 62.9701 257.201 66.1916V120.073C257.201 123.295 259.817 125.906 263.038 125.906H352.36L314.961 60.3588H263.038Z" fill="black"/>
</mask>
<g mask="url(#mask21_4_2)">
<path d="M333.42 13.2144L221.108 171.8L205.474 160.723L317.79 2.14194L333.42 13.2144Z" fill="#DEE6F8"/>
</g>
</g>
<mask id="mask22_4_2" style="mask-type:alpha" maskUnits="userSpaceOnUse" x="256" y="60" width="16" height="67">
<path d="M256.894 60.0772H271.094V126.708H256.894V60.0772Z" fill="black"/>
</mask>
<g mask="url(#mask22_4_2)">
<mask id="mask23_4_2" style="mask-type:alpha" maskUnits="userSpaceOnUse" x="257" y="60" width="96" height="66">
<path d="M263.038 60.3588C259.817 60.3588 257.201 62.9701 257.201 66.1916V120.073C257.201 123.295 259.817 125.906 263.038 125.906H352.36L314.961 60.3588H263.038Z" fill="black"/>
</mask>
<g mask="url(#mask23_4_2)">
<path d="M270.847 3.69508L158.53 162.281L150.125 156.324L262.441 -2.25717L270.847 3.69508Z" fill="#CDE1FD"/>
</g>
</g>
<mask id="mask24_4_2" style="mask-type:alpha" maskUnits="userSpaceOnUse" x="256" y="60" width="90" height="67">
<path d="M256.894 60.0772H345.371V126.708H256.894V60.0772Z" fill="black"/>
</mask>
<g mask="url(#mask24_4_2)">
<mask id="mask25_4_2" style="mask-type:alpha" maskUnits="userSpaceOnUse" x="257" y="60" width="96" height="66">
<path d="M263.038 60.3588C259.817 60.3588 257.201 62.9701 257.201 66.1916V120.073C257.201 123.295 259.817 125.906 263.038 125.906H352.36L314.961 60.3588H263.038Z" fill="black"/>
</mask>
<g mask="url(#mask25_4_2)">
<path d="M344.957 26.4971L232.645 185.083L224.24 179.126L336.552 20.5406L344.957 26.4971Z" fill="#DEE6F8"/>
</g>
</g>
<mask id="mask26_4_2" style="mask-type:alpha" maskUnits="userSpaceOnUse" x="266" y="60" width="88" height="67">
<path d="M266.725 60.0772H353.017V126.708H266.725V60.0772Z" fill="black"/>
</mask>
<g mask="url(#mask26_4_2)">
<mask id="mask27_4_2" style="mask-type:alpha" maskUnits="userSpaceOnUse" x="257" y="60" width="96" height="66">
<path d="M263.038 60.3588C259.817 60.3588 257.201 62.9701 257.201 66.1916V120.073C257.201 123.295 259.817 125.906 263.038 125.906H352.36L314.961 60.3588H263.038Z" fill="black"/>
</mask>
<g mask="url(#mask27_4_2)">
<path d="M388.509 29.7527L276.197 188.343L267.792 182.386L380.108 23.7962L388.509 29.7527Z" fill="#DEE6F8"/>
</g>
</g>
<path d="M346.899 120.841H344.066C342.768 120.841 341.723 119.792 341.723 118.499V97.8473C341.723 96.5544 342.768 95.5091 344.066 95.5091H346.899C348.192 95.5091 349.241 96.5544 349.241 97.8473V118.499C349.241 119.792 348.192 120.841 346.899 120.841Z" fill="#01064D"/>
<path d="M332.353 109.982V108.941C332.353 108.519 332.699 108.173 333.121 108.173H343.618V110.754H333.121C332.699 110.754 332.353 110.409 332.353 109.982Z" fill="#01064D"/>
<path d="M0 232.671H408V229.543H0V232.671Z" fill="#6D8BE6"/>
</svg>
