<svg width="300" height="300" viewBox="0 0 300 300" fill="none" xmlns="http://www.w3.org/2000/svg">
<mask id="mask0_3_4407" style="mask-type:alpha" maskUnits="userSpaceOnUse" x="0" y="0" width="300" height="300">
<path d="M0 0H300V300H0V0Z" fill="black"/>
</mask>
<g mask="url(#mask0_3_4407)">
<mask id="mask1_3_4407" style="mask-type:alpha" maskUnits="userSpaceOnUse" x="0" y="0" width="299" height="300">
<path d="M0.355103 150.148C0.355103 232.546 67.1401 299.343 149.521 299.343C231.901 299.343 298.686 232.546 298.686 150.148C298.686 67.7438 231.901 0.94696 149.521 0.94696C67.1401 0.94696 0.355103 67.7438 0.355103 150.148Z" fill="black"/>
</mask>
<g mask="url(#mask1_3_4407)">
<path d="M298.686 150.148C298.686 232.546 231.901 299.343 149.521 299.343C67.1401 299.343 0.355103 232.546 0.355103 150.148C0.355103 67.7439 67.1401 0.941101 149.521 0.941101C231.901 0.941101 298.686 67.7439 298.686 150.148Z" fill="#C7D9F0"/>
<path d="M298.686 150.148C298.686 232.546 231.901 299.343 149.521 299.343C67.1401 299.343 0.355103 232.546 0.355103 150.148C0.355103 67.7438 67.1401 0.94102 149.521 0.94102C231.901 0.94102 298.686 67.7438 298.686 150.148Z" stroke="white" stroke-width="5.008" stroke-miterlimit="10" stroke-linecap="round" stroke-linejoin="round"/>
</g>
</g>
<mask id="mask2_3_4407" style="mask-type:alpha" maskUnits="userSpaceOnUse" x="45" y="53" width="87" height="184">
<path d="M45.4546 53.0303H131.818V236.364H45.4546V53.0303Z" fill="black"/>
</mask>
<g mask="url(#mask2_3_4407)">
<mask id="mask3_3_4407" style="mask-type:alpha" maskUnits="userSpaceOnUse" x="0" y="0" width="299" height="300">
<path d="M0.355103 150.148C0.355103 232.546 67.1401 299.343 149.521 299.343C231.901 299.343 298.686 232.546 298.686 150.148C298.686 67.7438 231.901 0.946899 149.521 0.946899C67.1401 0.946899 0.355103 67.7438 0.355103 150.148Z" fill="black"/>
</mask>
<g mask="url(#mask3_3_4407)">
<path d="M46.3008 226.628V63.3345C46.3008 58.2031 50.4674 54.0364 55.5988 54.0364H121.538C126.669 54.0364 130.836 58.2031 130.836 63.3345V226.628C130.836 231.765 126.669 235.926 121.538 235.926H55.5988C50.4674 235.926 46.3008 231.765 46.3008 226.628Z" fill="#1169CB"/>
</g>
</g>
<mask id="mask4_3_4407" style="mask-type:alpha" maskUnits="userSpaceOnUse" x="86" y="65" width="5" height="161">
<path d="M86.3636 65.1515H90.9091V225.758H86.3636V65.1515Z" fill="black"/>
</mask>
<g mask="url(#mask4_3_4407)">
<mask id="mask5_3_4407" style="mask-type:alpha" maskUnits="userSpaceOnUse" x="0" y="0" width="299" height="300">
<path d="M0.355103 150.148C0.355103 232.546 67.1401 299.343 149.521 299.343C231.901 299.343 298.686 232.546 298.686 150.148C298.686 67.7438 231.901 0.946899 149.521 0.946899C67.1401 0.946899 0.355103 67.7438 0.355103 150.148Z" fill="black"/>
</mask>
<g mask="url(#mask5_3_4407)">
<path d="M86.843 222.994V66.9685C86.843 66.0748 87.571 65.3468 88.4647 65.3468H88.6659C89.5656 65.3468 90.2935 66.0748 90.2935 66.9685V222.994C90.2935 223.893 89.5656 224.615 88.6659 224.615H88.4647C87.571 224.615 86.843 223.893 86.843 222.994Z" fill="white"/>
</g>
</g>
<mask id="mask6_3_4407" style="mask-type:alpha" maskUnits="userSpaceOnUse" x="98" y="62" width="24" height="25">
<path d="M98.485 62.1212H121.212V86.3636H98.485V62.1212Z" fill="black"/>
</mask>
<g mask="url(#mask6_3_4407)">
<mask id="mask7_3_4407" style="mask-type:alpha" maskUnits="userSpaceOnUse" x="0" y="0" width="299" height="300">
<path d="M0.355225 150.148C0.355225 232.546 67.1403 299.343 149.521 299.343C231.901 299.343 298.686 232.546 298.686 150.148C298.686 67.7438 231.901 0.946899 149.521 0.946899C67.1403 0.946899 0.355225 67.7438 0.355225 150.148Z" fill="black"/>
</mask>
<g mask="url(#mask7_3_4407)">
<path d="M109.76 85.0082C103.687 85.0082 98.769 80.084 98.769 74.0056C98.769 67.9332 103.687 63.0089 109.76 63.0089C115.838 63.0089 120.762 67.9332 120.762 74.0056C120.762 80.084 115.838 85.0082 109.76 85.0082Z" fill="#BACDEF"/>
</g>
</g>
<mask id="mask8_3_4407" style="mask-type:alpha" maskUnits="userSpaceOnUse" x="101" y="66" width="18" height="16">
<path d="M101.515 66.6666H118.182V81.8181H101.515V66.6666Z" fill="black"/>
</mask>
<g mask="url(#mask8_3_4407)">
<mask id="mask9_3_4407" style="mask-type:alpha" maskUnits="userSpaceOnUse" x="0" y="0" width="299" height="300">
<path d="M0.355042 150.148C0.355042 232.546 67.1401 299.343 149.521 299.343C231.901 299.343 298.686 232.546 298.686 150.148C298.686 67.7438 231.901 0.946899 149.521 0.946899C67.1401 0.946899 0.355042 67.7438 0.355042 150.148Z" fill="black"/>
</mask>
<g mask="url(#mask9_3_4407)">
<path d="M115.317 80.8889L102.882 68.454C102.693 68.2646 102.693 67.9568 102.882 67.7675L103.527 67.1283C103.717 66.9389 104.019 66.9389 104.208 67.1283L116.637 79.5631C116.826 79.7525 116.826 80.0603 116.637 80.2497L115.998 80.8889C115.814 81.0783 115.501 81.0783 115.317 80.8889Z" fill="white"/>
</g>
</g>
<mask id="mask10_3_4407" style="mask-type:alpha" maskUnits="userSpaceOnUse" x="98" y="96" width="24" height="26">
<path d="M98.485 96.9697H121.212V121.212H98.485V96.9697Z" fill="black"/>
</mask>
<g mask="url(#mask10_3_4407)">
<mask id="mask11_3_4407" style="mask-type:alpha" maskUnits="userSpaceOnUse" x="0" y="0" width="299" height="300">
<path d="M0.355225 150.148C0.355225 232.546 67.1403 299.343 149.521 299.343C231.901 299.343 298.686 232.546 298.686 150.148C298.686 67.7438 231.901 0.946899 149.521 0.946899C67.1403 0.946899 0.355225 67.7438 0.355225 150.148Z" fill="black"/>
</mask>
<g mask="url(#mask11_3_4407)">
<path d="M109.76 119.987C103.687 119.987 98.769 115.063 98.769 108.984C98.769 102.912 103.687 97.9876 109.76 97.9876C115.838 97.9876 120.762 102.912 120.762 108.984C120.762 115.063 115.838 119.987 109.76 119.987Z" fill="#BACDEF"/>
</g>
</g>
<mask id="mask12_3_4407" style="mask-type:alpha" maskUnits="userSpaceOnUse" x="101" y="101" width="18" height="16">
<path d="M101.515 101.515H118.182V116.667H101.515V101.515Z" fill="black"/>
</mask>
<g mask="url(#mask12_3_4407)">
<mask id="mask13_3_4407" style="mask-type:alpha" maskUnits="userSpaceOnUse" x="0" y="0" width="299" height="300">
<path d="M0.355042 150.148C0.355042 232.546 67.1401 299.343 149.521 299.343C231.901 299.343 298.686 232.546 298.686 150.148C298.686 67.7438 231.901 0.946899 149.521 0.946899C67.1401 0.946899 0.355042 67.7438 0.355042 150.148Z" fill="black"/>
</mask>
<g mask="url(#mask13_3_4407)">
<path d="M115.317 115.868L102.882 103.433C102.693 103.243 102.693 102.936 102.882 102.746L103.527 102.107C103.717 101.918 104.019 101.918 104.208 102.107L116.637 114.542C116.826 114.731 116.826 115.039 116.637 115.222L115.998 115.868C115.814 116.057 115.501 116.057 115.317 115.868Z" fill="white"/>
</g>
</g>
<mask id="mask14_3_4407" style="mask-type:alpha" maskUnits="userSpaceOnUse" x="98" y="131" width="24" height="26">
<path d="M98.485 131.818H121.212V156.061H98.485V131.818Z" fill="black"/>
</mask>
<g mask="url(#mask14_3_4407)">
<mask id="mask15_3_4407" style="mask-type:alpha" maskUnits="userSpaceOnUse" x="0" y="0" width="299" height="300">
<path d="M0.355225 150.148C0.355225 232.546 67.1403 299.343 149.521 299.343C231.901 299.343 298.686 232.546 298.686 150.148C298.686 67.7438 231.901 0.946899 149.521 0.946899C67.1403 0.946899 0.355225 67.7438 0.355225 150.148Z" fill="black"/>
</mask>
<g mask="url(#mask15_3_4407)">
<path d="M109.76 154.966C103.687 154.966 98.769 150.041 98.769 143.963C98.769 137.891 103.687 132.966 109.76 132.966C115.838 132.966 120.762 137.891 120.762 143.963C120.762 150.041 115.838 154.966 109.76 154.966Z" fill="#BACDEF"/>
</g>
</g>
<mask id="mask16_3_4407" style="mask-type:alpha" maskUnits="userSpaceOnUse" x="101" y="136" width="18" height="16">
<path d="M101.515 136.364H118.182V151.515H101.515V136.364Z" fill="black"/>
</mask>
<g mask="url(#mask16_3_4407)">
<mask id="mask17_3_4407" style="mask-type:alpha" maskUnits="userSpaceOnUse" x="0" y="0" width="299" height="300">
<path d="M0.355042 150.148C0.355042 232.546 67.1401 299.343 149.521 299.343C231.901 299.343 298.686 232.546 298.686 150.148C298.686 67.7438 231.901 0.946899 149.521 0.946899C67.1401 0.946899 0.355042 67.7438 0.355042 150.148Z" fill="black"/>
</mask>
<g mask="url(#mask17_3_4407)">
<path d="M115.317 150.846L102.882 138.411C102.693 138.222 102.693 137.914 102.882 137.725L103.527 137.086C103.717 136.896 104.019 136.896 104.208 137.086L116.637 149.521C116.826 149.71 116.826 150.012 116.637 150.201L115.998 150.846C115.814 151.03 115.501 151.03 115.317 150.846Z" fill="white"/>
</g>
</g>
<mask id="mask18_3_4407" style="mask-type:alpha" maskUnits="userSpaceOnUse" x="98" y="166" width="24" height="25">
<path d="M98.485 166.667H121.212V190.909H98.485V166.667Z" fill="black"/>
</mask>
<g mask="url(#mask18_3_4407)">
<mask id="mask19_3_4407" style="mask-type:alpha" maskUnits="userSpaceOnUse" x="0" y="0" width="299" height="300">
<path d="M0.355225 150.148C0.355225 232.546 67.1403 299.343 149.521 299.343C231.901 299.343 298.686 232.546 298.686 150.148C298.686 67.7438 231.901 0.946899 149.521 0.946899C67.1403 0.946899 0.355225 67.7438 0.355225 150.148Z" fill="black"/>
</mask>
<g mask="url(#mask19_3_4407)">
<path d="M109.76 189.938C103.687 189.938 98.769 185.014 98.769 178.942C98.769 172.869 103.687 167.939 109.76 167.939C115.838 167.939 120.762 172.869 120.762 178.942C120.762 185.014 115.838 189.938 109.76 189.938Z" fill="#BACDEF"/>
</g>
</g>
<mask id="mask20_3_4407" style="mask-type:alpha" maskUnits="userSpaceOnUse" x="101" y="171" width="18" height="16">
<path d="M101.515 171.212H118.182V186.364H101.515V171.212Z" fill="black"/>
</mask>
<g mask="url(#mask20_3_4407)">
<mask id="mask21_3_4407" style="mask-type:alpha" maskUnits="userSpaceOnUse" x="0" y="0" width="299" height="300">
<path d="M0.355042 150.148C0.355042 232.546 67.1401 299.343 149.521 299.343C231.901 299.343 298.686 232.546 298.686 150.148C298.686 67.7438 231.901 0.946899 149.521 0.946899C67.1401 0.946899 0.355042 67.7438 0.355042 150.148Z" fill="black"/>
</mask>
<g mask="url(#mask21_3_4407)">
<path d="M115.317 185.819L102.882 173.384C102.693 173.195 102.693 172.893 102.882 172.704L103.527 172.064C103.717 171.875 104.019 171.875 104.208 172.064L116.637 184.493C116.826 184.683 116.826 184.99 116.637 185.18L115.998 185.819C115.814 186.008 115.501 186.008 115.317 185.819Z" fill="white"/>
</g>
</g>
<mask id="mask22_3_4407" style="mask-type:alpha" maskUnits="userSpaceOnUse" x="98" y="201" width="24" height="25">
<path d="M98.485 201.515H121.212V225.758H98.485V201.515Z" fill="black"/>
</mask>
<g mask="url(#mask22_3_4407)">
<mask id="mask23_3_4407" style="mask-type:alpha" maskUnits="userSpaceOnUse" x="0" y="0" width="299" height="300">
<path d="M0.355225 150.148C0.355225 232.546 67.1403 299.343 149.521 299.343C231.901 299.343 298.686 232.546 298.686 150.148C298.686 67.7438 231.901 0.946899 149.521 0.946899C67.1403 0.946899 0.355225 67.7438 0.355225 150.148Z" fill="black"/>
</mask>
<g mask="url(#mask23_3_4407)">
<path d="M109.76 224.917C103.687 224.917 98.769 219.993 98.769 213.92C98.769 207.842 103.687 202.918 109.76 202.918C115.838 202.918 120.762 207.842 120.762 213.92C120.762 219.993 115.838 224.917 109.76 224.917Z" fill="#BACDEF"/>
</g>
</g>
<mask id="mask24_3_4407" style="mask-type:alpha" maskUnits="userSpaceOnUse" x="101" y="206" width="18" height="16">
<path d="M101.515 206.061H118.182V221.212H101.515V206.061Z" fill="black"/>
</mask>
<g mask="url(#mask24_3_4407)">
<mask id="mask25_3_4407" style="mask-type:alpha" maskUnits="userSpaceOnUse" x="0" y="0" width="299" height="300">
<path d="M0.355042 150.148C0.355042 232.546 67.1401 299.343 149.521 299.343C231.901 299.343 298.686 232.546 298.686 150.148C298.686 67.7438 231.901 0.946899 149.521 0.946899C67.1401 0.946899 0.355042 67.7438 0.355042 150.148Z" fill="black"/>
</mask>
<g mask="url(#mask25_3_4407)">
<path d="M115.317 220.798L102.882 208.363C102.693 208.173 102.693 207.872 102.882 207.682L103.527 207.037C103.717 206.848 104.019 206.848 104.208 207.037L116.637 219.472C116.826 219.661 116.826 219.969 116.637 220.159L115.998 220.798C115.814 220.987 115.501 220.987 115.317 220.798Z" fill="white"/>
</g>
</g>
<mask id="mask26_3_4407" style="mask-type:alpha" maskUnits="userSpaceOnUse" x="56" y="63" width="23" height="24">
<path d="M56.0604 63.6363H78.7877V86.3636H56.0604V63.6363Z" fill="black"/>
</mask>
<g mask="url(#mask26_3_4407)">
<mask id="mask27_3_4407" style="mask-type:alpha" maskUnits="userSpaceOnUse" x="0" y="0" width="299" height="300">
<path d="M0.355042 150.148C0.355042 232.546 67.1401 299.343 149.521 299.343C231.901 299.343 298.686 232.546 298.686 150.148C298.686 67.7438 231.901 0.946899 149.521 0.946899C67.1401 0.946899 0.355042 67.7438 0.355042 150.148Z" fill="black"/>
</mask>
<g mask="url(#mask27_3_4407)">
<path d="M67.371 86.0262C61.2985 86.0262 56.3743 81.102 56.3743 75.0236C56.3743 68.9512 61.2985 64.0269 67.371 64.0269C73.4493 64.0269 78.3676 68.9512 78.3676 75.0236C78.3676 81.102 73.4493 86.0262 67.371 86.0262Z" fill="#BACDEF"/>
</g>
</g>
<mask id="mask28_3_4407" style="mask-type:alpha" maskUnits="userSpaceOnUse" x="59" y="66" width="17" height="18">
<path d="M59.0909 66.6666H75.7576V83.3333H59.0909V66.6666Z" fill="black"/>
</mask>
<g mask="url(#mask28_3_4407)">
<mask id="mask29_3_4407" style="mask-type:alpha" maskUnits="userSpaceOnUse" x="0" y="0" width="299" height="300">
<path d="M0.355103 150.148C0.355103 232.546 67.1401 299.343 149.521 299.343C231.901 299.343 298.686 232.546 298.686 150.148C298.686 67.7438 231.901 0.946899 149.521 0.946899C67.1401 0.946899 0.355103 67.7438 0.355103 150.148Z" fill="black"/>
</mask>
<g mask="url(#mask29_3_4407)">
<path d="M72.9285 81.9068L60.4936 69.472C60.3042 69.2826 60.3042 68.9748 60.4936 68.7854L61.1387 68.1462C61.3222 67.9568 61.63 67.9568 61.8194 68.1462L74.2543 80.5811C74.4437 80.7705 74.4437 81.0782 74.2543 81.2676L73.6091 81.9068C73.4197 82.0962 73.1179 82.0962 72.9285 81.9068Z" fill="white"/>
</g>
</g>
<mask id="mask30_3_4407" style="mask-type:alpha" maskUnits="userSpaceOnUse" x="56" y="98" width="23" height="24">
<path d="M56.0604 98.4848H78.7877V121.212H56.0604V98.4848Z" fill="black"/>
</mask>
<g mask="url(#mask30_3_4407)">
<mask id="mask31_3_4407" style="mask-type:alpha" maskUnits="userSpaceOnUse" x="0" y="0" width="299" height="300">
<path d="M0.355042 150.148C0.355042 232.546 67.1401 299.343 149.521 299.343C231.901 299.343 298.686 232.546 298.686 150.148C298.686 67.7438 231.901 0.946899 149.521 0.946899C67.1401 0.946899 0.355042 67.7438 0.355042 150.148Z" fill="black"/>
</mask>
<g mask="url(#mask31_3_4407)">
<path d="M67.371 121.005C61.2985 121.005 56.3743 116.081 56.3743 110.002C56.3743 103.93 61.2985 99.0056 67.371 99.0056C73.4493 99.0056 78.3676 103.93 78.3676 110.002C78.3676 116.081 73.4493 121.005 67.371 121.005Z" fill="#BACDEF"/>
</g>
</g>
<mask id="mask32_3_4407" style="mask-type:alpha" maskUnits="userSpaceOnUse" x="59" y="101" width="17" height="18">
<path d="M59.0909 101.515H75.7576V118.182H59.0909V101.515Z" fill="black"/>
</mask>
<g mask="url(#mask32_3_4407)">
<mask id="mask33_3_4407" style="mask-type:alpha" maskUnits="userSpaceOnUse" x="0" y="0" width="299" height="300">
<path d="M0.355103 150.148C0.355103 232.546 67.1401 299.343 149.521 299.343C231.901 299.343 298.686 232.546 298.686 150.148C298.686 67.7438 231.901 0.946899 149.521 0.946899C67.1401 0.946899 0.355103 67.7438 0.355103 150.148Z" fill="black"/>
</mask>
<g mask="url(#mask33_3_4407)">
<path d="M72.9285 116.886L60.4936 104.451C60.3042 104.261 60.3042 103.953 60.4936 103.764L61.1387 103.125C61.3222 102.936 61.63 102.936 61.8194 103.125L74.2543 115.56C74.4437 115.749 74.4437 116.057 74.2543 116.24L73.6091 116.886C73.4197 117.075 73.1179 117.075 72.9285 116.886Z" fill="white"/>
</g>
</g>
<mask id="mask34_3_4407" style="mask-type:alpha" maskUnits="userSpaceOnUse" x="56" y="133" width="23" height="24">
<path d="M56.0604 133.333H78.7877V156.061H56.0604V133.333Z" fill="black"/>
</mask>
<g mask="url(#mask34_3_4407)">
<mask id="mask35_3_4407" style="mask-type:alpha" maskUnits="userSpaceOnUse" x="0" y="0" width="299" height="300">
<path d="M0.355042 150.148C0.355042 232.546 67.1401 299.343 149.521 299.343C231.901 299.343 298.686 232.546 298.686 150.148C298.686 67.7438 231.901 0.946899 149.521 0.946899C67.1401 0.946899 0.355042 67.7438 0.355042 150.148Z" fill="black"/>
</mask>
<g mask="url(#mask35_3_4407)">
<path d="M67.371 155.984C61.2985 155.984 56.3743 151.059 56.3743 144.981C56.3743 138.908 61.2985 133.984 67.371 133.984C73.4493 133.984 78.3676 138.908 78.3676 144.981C78.3676 151.059 73.4493 155.984 67.371 155.984Z" fill="#BACDEF"/>
</g>
</g>
<mask id="mask36_3_4407" style="mask-type:alpha" maskUnits="userSpaceOnUse" x="59" y="137" width="17" height="17">
<path d="M59.0909 137.879H75.7576V153.03H59.0909V137.879Z" fill="black"/>
</mask>
<g mask="url(#mask36_3_4407)">
<mask id="mask37_3_4407" style="mask-type:alpha" maskUnits="userSpaceOnUse" x="0" y="0" width="299" height="300">
<path d="M0.355103 150.148C0.355103 232.546 67.1401 299.343 149.521 299.343C231.901 299.343 298.686 232.546 298.686 150.148C298.686 67.7438 231.901 0.946899 149.521 0.946899C67.1401 0.946899 0.355103 67.7438 0.355103 150.148Z" fill="black"/>
</mask>
<g mask="url(#mask37_3_4407)">
<path d="M72.9285 151.864L60.4936 139.429C60.3042 139.24 60.3042 138.932 60.4936 138.743L61.1387 138.104C61.3222 137.914 61.63 137.914 61.8194 138.104L74.2543 150.538C74.4437 150.728 74.4437 151.03 74.2543 151.219L73.6091 151.864C73.4197 152.048 73.1179 152.048 72.9285 151.864Z" fill="white"/>
</g>
</g>
<mask id="mask38_3_4407" style="mask-type:alpha" maskUnits="userSpaceOnUse" x="56" y="168" width="23" height="25">
<path d="M56.0604 168.182H78.7877V192.424H56.0604V168.182Z" fill="black"/>
</mask>
<g mask="url(#mask38_3_4407)">
<mask id="mask39_3_4407" style="mask-type:alpha" maskUnits="userSpaceOnUse" x="0" y="0" width="299" height="300">
<path d="M0.355042 150.148C0.355042 232.546 67.1401 299.343 149.521 299.343C231.901 299.343 298.686 232.546 298.686 150.148C298.686 67.7438 231.901 0.946899 149.521 0.946899C67.1401 0.946899 0.355042 67.7438 0.355042 150.148Z" fill="black"/>
</mask>
<g mask="url(#mask39_3_4407)">
<path d="M67.371 190.956C61.2985 190.956 56.3743 186.032 56.3743 179.96C56.3743 173.887 61.2985 168.963 67.371 168.963C73.4493 168.963 78.3676 173.887 78.3676 179.96C78.3676 186.032 73.4493 190.956 67.371 190.956Z" fill="#BACDEF"/>
</g>
</g>
<mask id="mask40_3_4407" style="mask-type:alpha" maskUnits="userSpaceOnUse" x="59" y="172" width="17" height="16">
<path d="M59.0909 172.727H75.7576V187.879H59.0909V172.727Z" fill="black"/>
</mask>
<g mask="url(#mask40_3_4407)">
<mask id="mask41_3_4407" style="mask-type:alpha" maskUnits="userSpaceOnUse" x="0" y="0" width="299" height="300">
<path d="M0.355103 150.148C0.355103 232.546 67.1401 299.343 149.521 299.343C231.901 299.343 298.686 232.546 298.686 150.148C298.686 67.7438 231.901 0.946899 149.521 0.946899C67.1401 0.946899 0.355103 67.7438 0.355103 150.148Z" fill="black"/>
</mask>
<g mask="url(#mask41_3_4407)">
<path d="M72.9285 186.837L60.4936 174.402C60.3042 174.213 60.3042 173.911 60.4936 173.721L61.1387 173.082C61.3222 172.893 61.63 172.893 61.8194 173.082L74.2543 185.511C74.4437 185.701 74.4437 186.008 74.2543 186.198L73.6091 186.837C73.4197 187.026 73.1179 187.026 72.9285 186.837Z" fill="white"/>
</g>
</g>
<mask id="mask42_3_4407" style="mask-type:alpha" maskUnits="userSpaceOnUse" x="56" y="203" width="23" height="25">
<path d="M56.0604 203.03H78.7877V227.273H56.0604V203.03Z" fill="black"/>
</mask>
<g mask="url(#mask42_3_4407)">
<mask id="mask43_3_4407" style="mask-type:alpha" maskUnits="userSpaceOnUse" x="0" y="0" width="299" height="300">
<path d="M0.355042 150.148C0.355042 232.546 67.1401 299.343 149.521 299.343C231.901 299.343 298.686 232.546 298.686 150.148C298.686 67.7438 231.901 0.946899 149.521 0.946899C67.1401 0.946899 0.355042 67.7438 0.355042 150.148Z" fill="black"/>
</mask>
<g mask="url(#mask43_3_4407)">
<path d="M67.371 225.935C61.2985 225.935 56.3743 221.011 56.3743 214.938C56.3743 208.86 61.2985 203.936 67.371 203.936C73.4493 203.936 78.3676 208.86 78.3676 214.938C78.3676 221.011 73.4493 225.935 67.371 225.935Z" fill="#BACDEF"/>
</g>
</g>
<mask id="mask44_3_4407" style="mask-type:alpha" maskUnits="userSpaceOnUse" x="59" y="207" width="17" height="16">
<path d="M59.0909 207.576H75.7576V222.727H59.0909V207.576Z" fill="black"/>
</mask>
<g mask="url(#mask44_3_4407)">
<mask id="mask45_3_4407" style="mask-type:alpha" maskUnits="userSpaceOnUse" x="0" y="0" width="299" height="300">
<path d="M0.355103 150.148C0.355103 232.546 67.1401 299.343 149.521 299.343C231.901 299.343 298.686 232.546 298.686 150.148C298.686 67.7438 231.901 0.946899 149.521 0.946899C67.1401 0.946899 0.355103 67.7438 0.355103 150.148Z" fill="black"/>
</mask>
<g mask="url(#mask45_3_4407)">
<path d="M72.9285 221.816L60.4936 209.381C60.3042 209.191 60.3042 208.89 60.4936 208.7L61.1387 208.055C61.3222 207.866 61.63 207.866 61.8194 208.055L74.2543 220.49C74.4437 220.679 74.4437 220.987 74.2543 221.177L73.6091 221.816C73.4197 222.005 73.1179 222.005 72.9285 221.816Z" fill="white"/>
</g>
</g>
<mask id="mask46_3_4407" style="mask-type:alpha" maskUnits="userSpaceOnUse" x="113" y="84" width="89" height="154">
<path d="M113.636 84.8484H201.515V237.879H113.636V84.8484Z" fill="black"/>
</mask>
<g mask="url(#mask46_3_4407)">
<mask id="mask47_3_4407" style="mask-type:alpha" maskUnits="userSpaceOnUse" x="0" y="0" width="299" height="300">
<path d="M0.355103 150.148C0.355103 232.546 67.1401 299.343 149.521 299.343C231.901 299.343 298.686 232.546 298.686 150.148C298.686 67.7438 231.901 0.946899 149.521 0.946899C67.1401 0.946899 0.355103 67.7438 0.355103 150.148Z" fill="black"/>
</mask>
<g mask="url(#mask47_3_4407)">
<path d="M201.107 124.373C200.527 110.186 189.802 98.615 175.994 96.727V85.0851H139.577V96.6796C125.598 98.4256 114.702 110.061 114.116 124.373H114.086V225.065C114.086 231.339 119.17 236.429 125.444 236.429H189.779C196.052 236.429 201.142 231.339 201.142 225.065V124.373" fill="#86A3F7"/>
</g>
</g>
<mask id="mask48_3_4407" style="mask-type:alpha" maskUnits="userSpaceOnUse" x="113" y="136" width="77" height="55">
<path d="M113.636 136.364H189.394V190.909H113.636V136.364Z" fill="black"/>
</mask>
<g mask="url(#mask48_3_4407)">
<mask id="mask49_3_4407" style="mask-type:alpha" maskUnits="userSpaceOnUse" x="0" y="0" width="299" height="300">
<path d="M0.355103 150.148C0.355103 232.546 67.1401 299.343 149.521 299.343C231.901 299.343 298.686 232.546 298.686 150.148C298.686 67.7438 231.901 0.946899 149.521 0.946899C67.1401 0.946899 0.355103 67.7438 0.355103 150.148Z" fill="black"/>
</mask>
<g mask="url(#mask49_3_4407)">
<path d="M185.399 190.477H114.086V137.743H185.399C187.293 137.743 188.826 139.276 188.826 141.169V187.05C188.826 188.938 187.293 190.477 185.399 190.477Z" fill="white"/>
</g>
</g>
<mask id="mask50_3_4407" style="mask-type:alpha" maskUnits="userSpaceOnUse" x="98" y="124" width="104" height="80">
<path d="M98.485 124.242H201.515V203.03H98.485V124.242Z" fill="black"/>
</mask>
<g mask="url(#mask50_3_4407)">
<mask id="mask51_3_4407" style="mask-type:alpha" maskUnits="userSpaceOnUse" x="0" y="0" width="299" height="300">
<path d="M0.355225 150.148C0.355225 232.546 67.1403 299.343 149.521 299.343C231.901 299.343 298.686 232.546 298.686 150.148C298.686 67.7438 231.901 0.94696 149.521 0.94696C67.1403 0.94696 0.355225 67.7438 0.355225 150.148Z" fill="black"/>
</mask>
<g mask="url(#mask51_3_4407)">
<path d="M114.347 140.767L181.824 140.524C183.511 140.524 184.884 141.897 184.884 143.59V184.629C184.884 186.322 183.511 187.695 181.824 187.695H114.347" stroke="#BACDEF" stroke-width="0.949333" stroke-miterlimit="10"/>
</g>
</g>
<mask id="mask52_3_4407" style="mask-type:alpha" maskUnits="userSpaceOnUse" x="116" y="169" width="54" height="6">
<path d="M116.667 169.697H169.697V174.242H116.667V169.697Z" fill="black"/>
</mask>
<g mask="url(#mask52_3_4407)">
<mask id="mask53_3_4407" style="mask-type:alpha" maskUnits="userSpaceOnUse" x="0" y="0" width="299" height="300">
<path d="M0.355164 150.148C0.355164 232.546 67.1402 299.343 149.521 299.343C231.901 299.343 298.686 232.546 298.686 150.148C298.686 67.7438 231.901 0.946899 149.521 0.946899C67.1402 0.946899 0.355164 67.7438 0.355164 150.148Z" fill="black"/>
</mask>
<g mask="url(#mask53_3_4407)">
<path d="M169.052 173.39H117.957C117.631 173.39 117.365 173.124 117.365 172.792V171.656C117.365 171.33 117.631 171.064 117.957 171.064H169.052C169.377 171.064 169.644 171.33 169.644 171.656V172.792C169.644 173.124 169.377 173.39 169.052 173.39Z" fill="#BACDEF"/>
</g>
</g>
<mask id="mask54_3_4407" style="mask-type:alpha" maskUnits="userSpaceOnUse" x="116" y="165" width="48" height="5">
<path d="M116.667 165.151H163.636V169.697H116.667V165.151Z" fill="black"/>
</mask>
<g mask="url(#mask54_3_4407)">
<mask id="mask55_3_4407" style="mask-type:alpha" maskUnits="userSpaceOnUse" x="0" y="0" width="299" height="300">
<path d="M0.355164 150.148C0.355164 232.546 67.1402 299.343 149.521 299.343C231.901 299.343 298.686 232.546 298.686 150.148C298.686 67.7438 231.901 0.946899 149.521 0.946899C67.1402 0.946899 0.355164 67.7438 0.355164 150.148Z" fill="black"/>
</mask>
<g mask="url(#mask55_3_4407)">
<path d="M161.612 168.365H117.916C117.608 168.365 117.365 168.123 117.365 167.821V166.59C117.365 166.288 117.608 166.045 117.916 166.045H161.612C161.92 166.045 162.163 166.288 162.163 166.59V167.821C162.163 168.123 161.92 168.365 161.612 168.365Z" fill="#90A6FF"/>
</g>
</g>
<mask id="mask56_3_4407" style="mask-type:alpha" maskUnits="userSpaceOnUse" x="116" y="175" width="56" height="4">
<path d="M116.667 175.758H171.212V178.788H116.667V175.758Z" fill="black"/>
</mask>
<g mask="url(#mask56_3_4407)">
<mask id="mask57_3_4407" style="mask-type:alpha" maskUnits="userSpaceOnUse" x="0" y="0" width="299" height="300">
<path d="M0.355164 150.148C0.355164 232.546 67.1402 299.343 149.521 299.343C231.901 299.343 298.686 232.546 298.686 150.148C298.686 67.7438 231.901 0.946899 149.521 0.946899C67.1402 0.946899 0.355164 67.7438 0.355164 150.148Z" fill="black"/>
</mask>
<g mask="url(#mask57_3_4407)">
<path d="M169.111 178.226H118.117C117.702 178.226 117.365 177.888 117.365 177.474V176.651C117.365 176.237 117.702 175.9 118.117 175.9H169.111C169.531 175.9 169.869 176.237 169.869 176.651V177.474C169.869 177.888 169.531 178.226 169.111 178.226Z" fill="#90A6FF"/>
</g>
</g>
<mask id="mask58_3_4407" style="mask-type:alpha" maskUnits="userSpaceOnUse" x="116" y="148" width="47" height="16">
<path d="M116.667 148.485H162.121V163.636H116.667V148.485Z" fill="black"/>
</mask>
<g mask="url(#mask58_3_4407)">
<mask id="mask59_3_4407" style="mask-type:alpha" maskUnits="userSpaceOnUse" x="0" y="0" width="299" height="300">
<path d="M0.355164 150.148C0.355164 232.546 67.1402 299.343 149.521 299.343C231.901 299.343 298.686 232.546 298.686 150.148C298.686 67.7438 231.901 0.946899 149.521 0.946899C67.1402 0.946899 0.355164 67.7438 0.355164 150.148Z" fill="black"/>
</mask>
<g mask="url(#mask59_3_4407)">
<path d="M159.411 162.5H119.158C118.164 162.5 117.365 161.695 117.365 160.707V151.787C117.365 150.793 118.164 149.994 119.158 149.994H159.411C160.399 149.994 161.204 150.793 161.204 151.787V160.707C161.204 161.695 160.399 162.5 159.411 162.5Z" fill="#BACDEF"/>
</g>
</g>
<mask id="mask60_3_4407" style="mask-type:alpha" maskUnits="userSpaceOnUse" x="134" y="78" width="47" height="15">
<path d="M134.849 78.7878H180.303V92.4242H134.849V78.7878Z" fill="black"/>
</mask>
<g mask="url(#mask60_3_4407)">
<mask id="mask61_3_4407" style="mask-type:alpha" maskUnits="userSpaceOnUse" x="0" y="0" width="299" height="300">
<path d="M0.355164 150.148C0.355164 232.546 67.1402 299.343 149.521 299.343C231.901 299.343 298.686 232.546 298.686 150.148C298.686 67.7438 231.901 0.946899 149.521 0.946899C67.1402 0.946899 0.355164 67.7438 0.355164 150.148Z" fill="black"/>
</mask>
<g mask="url(#mask61_3_4407)">
<path d="M176.977 91.2405H138.595C137.222 91.2405 136.109 90.1278 136.109 88.7488V81.4157C136.109 80.0366 137.222 78.924 138.595 78.924H176.977C178.35 78.924 179.463 80.0366 179.463 81.4157V88.7488C179.463 90.1278 178.35 91.2405 176.977 91.2405Z" fill="#FEFEFC"/>
</g>
</g>
<mask id="mask62_3_4407" style="mask-type:alpha" maskUnits="userSpaceOnUse" x="134" y="78" width="6" height="15">
<path d="M134.849 78.7878H139.394V92.4242H134.849V78.7878Z" fill="black"/>
</mask>
<g mask="url(#mask62_3_4407)">
<mask id="mask63_3_4407" style="mask-type:alpha" maskUnits="userSpaceOnUse" x="136" y="78" width="44" height="14">
<path d="M138.595 78.924C137.222 78.924 136.109 80.0366 136.109 81.4157V88.7547C136.109 90.1278 137.222 91.2405 138.595 91.2405H176.971C178.35 91.2405 179.463 90.1278 179.463 88.7547V81.4157C179.463 80.0366 178.35 78.924 176.971 78.924H138.595Z" fill="black"/>
</mask>
<g mask="url(#mask63_3_4407)">
<path d="M136.162 95.0521H138.666V72.4669H136.162V95.0521Z" fill="#D0E1FF"/>
</g>
</g>
<mask id="mask64_3_4407" style="mask-type:alpha" maskUnits="userSpaceOnUse" x="140" y="78" width="4" height="15">
<path d="M140.909 78.7878H143.939V92.4242H140.909V78.7878Z" fill="black"/>
</mask>
<g mask="url(#mask64_3_4407)">
<mask id="mask65_3_4407" style="mask-type:alpha" maskUnits="userSpaceOnUse" x="136" y="78" width="44" height="14">
<path d="M138.595 78.924C137.222 78.924 136.109 80.0366 136.109 81.4157V88.7547C136.109 90.1278 137.222 91.2405 138.595 91.2405H176.971C178.35 91.2405 179.463 90.1278 179.463 88.7547V81.4157C179.463 80.0366 178.35 78.924 176.971 78.924H138.595Z" fill="black"/>
</mask>
<g mask="url(#mask65_3_4407)">
<path d="M141.252 95.0521H143.756V72.4669H141.252V95.0521Z" fill="#D0E1FF"/>
</g>
</g>
<mask id="mask66_3_4407" style="mask-type:alpha" maskUnits="userSpaceOnUse" x="145" y="78" width="5" height="15">
<path d="M145.455 78.7878H150V92.4242H145.455V78.7878Z" fill="black"/>
</mask>
<g mask="url(#mask66_3_4407)">
<mask id="mask67_3_4407" style="mask-type:alpha" maskUnits="userSpaceOnUse" x="136" y="78" width="44" height="14">
<path d="M138.595 78.924C137.222 78.924 136.109 80.0366 136.109 81.4157V88.7547C136.109 90.1278 137.222 91.2405 138.595 91.2405H176.971C178.35 91.2405 179.463 90.1278 179.463 88.7547V81.4157C179.463 80.0366 178.35 78.924 176.971 78.924H138.595Z" fill="black"/>
</mask>
<g mask="url(#mask67_3_4407)">
<path d="M146.348 95.0521H148.852V72.4669H146.348V95.0521Z" fill="#D0E1FF"/>
</g>
</g>
<mask id="mask68_3_4407" style="mask-type:alpha" maskUnits="userSpaceOnUse" x="150" y="78" width="5" height="15">
<path d="M150 78.7878H154.545V92.4242H150V78.7878Z" fill="black"/>
</mask>
<g mask="url(#mask68_3_4407)">
<mask id="mask69_3_4407" style="mask-type:alpha" maskUnits="userSpaceOnUse" x="136" y="78" width="44" height="14">
<path d="M138.595 78.924C137.222 78.924 136.109 80.0366 136.109 81.4157V88.7547C136.109 90.1278 137.222 91.2405 138.595 91.2405H176.971C178.35 91.2405 179.463 90.1278 179.463 88.7547V81.4157C179.463 80.0366 178.35 78.924 176.971 78.924H138.595Z" fill="black"/>
</mask>
<g mask="url(#mask69_3_4407)">
<path d="M151.438 95.0521H153.948V72.4669H151.438V95.0521Z" fill="#D0E1FF"/>
</g>
</g>
<mask id="mask70_3_4407" style="mask-type:alpha" maskUnits="userSpaceOnUse" x="156" y="78" width="4" height="15">
<path d="M156.061 78.7878H159.091V92.4242H156.061V78.7878Z" fill="black"/>
</mask>
<g mask="url(#mask70_3_4407)">
<mask id="mask71_3_4407" style="mask-type:alpha" maskUnits="userSpaceOnUse" x="136" y="78" width="44" height="14">
<path d="M138.595 78.924C137.222 78.924 136.109 80.0366 136.109 81.4157V88.7547C136.109 90.1278 137.222 91.2405 138.595 91.2405H176.971C178.35 91.2405 179.463 90.1278 179.463 88.7547V81.4157C179.463 80.0366 178.35 78.924 176.971 78.924H138.595Z" fill="black"/>
</mask>
<g mask="url(#mask71_3_4407)">
<path d="M156.534 95.0521H159.038V72.4669H156.534V95.0521Z" fill="#D0E1FF"/>
</g>
</g>
<mask id="mask72_3_4407" style="mask-type:alpha" maskUnits="userSpaceOnUse" x="160" y="78" width="6" height="15">
<path d="M160.606 78.7878H165.151V92.4242H160.606V78.7878Z" fill="black"/>
</mask>
<g mask="url(#mask72_3_4407)">
<mask id="mask73_3_4407" style="mask-type:alpha" maskUnits="userSpaceOnUse" x="136" y="78" width="44" height="14">
<path d="M138.595 78.924C137.222 78.924 136.109 80.0366 136.109 81.4157V88.7547C136.109 90.1278 137.222 91.2405 138.595 91.2405H176.971C178.35 91.2405 179.463 90.1278 179.463 88.7547V81.4157C179.463 80.0366 178.35 78.924 176.971 78.924H138.595Z" fill="black"/>
</mask>
<g mask="url(#mask73_3_4407)">
<path d="M161.624 95.0521H164.128V72.4669H161.624V95.0521Z" fill="#D0E1FF"/>
</g>
</g>
<mask id="mask74_3_4407" style="mask-type:alpha" maskUnits="userSpaceOnUse" x="166" y="78" width="4" height="15">
<path d="M166.667 78.7878H169.697V92.4242H166.667V78.7878Z" fill="black"/>
</mask>
<g mask="url(#mask74_3_4407)">
<mask id="mask75_3_4407" style="mask-type:alpha" maskUnits="userSpaceOnUse" x="136" y="78" width="44" height="14">
<path d="M138.595 78.924C137.222 78.924 136.109 80.0366 136.109 81.4157V88.7547C136.109 90.1278 137.222 91.2405 138.595 91.2405H176.971C178.35 91.2405 179.463 90.1278 179.463 88.7547V81.4157C179.463 80.0366 178.35 78.924 176.971 78.924H138.595Z" fill="black"/>
</mask>
<g mask="url(#mask75_3_4407)">
<path d="M166.72 95.0521H169.224V72.4669H166.72V95.0521Z" fill="#D0E1FF"/>
</g>
</g>
<mask id="mask76_3_4407" style="mask-type:alpha" maskUnits="userSpaceOnUse" x="171" y="78" width="5" height="15">
<path d="M171.212 78.7878H175.758V92.4242H171.212V78.7878Z" fill="black"/>
</mask>
<g mask="url(#mask76_3_4407)">
<mask id="mask77_3_4407" style="mask-type:alpha" maskUnits="userSpaceOnUse" x="136" y="78" width="44" height="14">
<path d="M138.595 78.924C137.222 78.924 136.109 80.0366 136.109 81.4157V88.7547C136.109 90.1278 137.222 91.2405 138.595 91.2405H176.971C178.35 91.2405 179.463 90.1278 179.463 88.7547V81.4157C179.463 80.0366 178.35 78.924 176.971 78.924H138.595Z" fill="black"/>
</mask>
<g mask="url(#mask77_3_4407)">
<path d="M171.816 95.0521H174.319V72.4669H171.816V95.0521Z" fill="#D0E1FF"/>
</g>
</g>
<mask id="mask78_3_4407" style="mask-type:alpha" maskUnits="userSpaceOnUse" x="175" y="78" width="6" height="15">
<path d="M175.758 78.7878H180.303V92.4242H175.758V78.7878Z" fill="black"/>
</mask>
<g mask="url(#mask78_3_4407)">
<mask id="mask79_3_4407" style="mask-type:alpha" maskUnits="userSpaceOnUse" x="136" y="78" width="44" height="14">
<path d="M138.595 78.924C137.222 78.924 136.109 80.0366 136.109 81.4157V88.7547C136.109 90.1278 137.222 91.2405 138.595 91.2405H176.971C178.35 91.2405 179.463 90.1278 179.463 88.7547V81.4157C179.463 80.0366 178.35 78.924 176.971 78.924H138.595Z" fill="black"/>
</mask>
<g mask="url(#mask79_3_4407)">
<path d="M176.906 95.0521H179.409V72.4669H176.906V95.0521Z" fill="#D0E1FF"/>
</g>
</g>
<mask id="mask80_3_4407" style="mask-type:alpha" maskUnits="userSpaceOnUse" x="174" y="104" width="17" height="21">
<path d="M174.242 104.545H190.909V124.242H174.242V104.545Z" fill="black"/>
</mask>
<g mask="url(#mask80_3_4407)">
<mask id="mask81_3_4407" style="mask-type:alpha" maskUnits="userSpaceOnUse" x="0" y="0" width="299" height="300">
<path d="M0.355042 150.148C0.355042 232.546 67.1401 299.343 149.521 299.343C231.901 299.343 298.686 232.546 298.686 150.148C298.686 67.7438 231.901 0.94696 149.521 0.94696C67.1401 0.94696 0.355042 67.7438 0.355042 150.148Z" fill="black"/>
</mask>
<g mask="url(#mask81_3_4407)">
<path d="M182.534 116.625C183.292 118.034 183.919 119.537 184.783 120.875C185.411 121.845 186.263 122.781 187.316 122.881C188.417 122.988 189.4 122.1 189.927 121.035C190.761 119.336 190.69 117.187 190.092 115.311C189.489 113.435 188.405 111.784 187.257 110.245C186.512 109.251 185.73 108.286 184.819 107.487C182.943 105.836 180.546 104.96 178.208 105.072C177.024 105.125 175.639 105.67 175.444 106.972C175.16 108.866 177.131 109.914 178.214 110.884C179.942 112.423 181.404 114.524 182.534 116.625Z" fill="#DCF9F3"/>
</g>
</g>
<mask id="mask82_3_4407" style="mask-type:alpha" maskUnits="userSpaceOnUse" x="186" y="124" width="10" height="13">
<path d="M186.364 124.242H195.455V136.364H186.364V124.242Z" fill="black"/>
</mask>
<g mask="url(#mask82_3_4407)">
<mask id="mask83_3_4407" style="mask-type:alpha" maskUnits="userSpaceOnUse" x="0" y="0" width="299" height="300">
<path d="M0.355103 150.148C0.355103 232.546 67.1401 299.343 149.521 299.343C231.901 299.343 298.686 232.546 298.686 150.148C298.686 67.7438 231.901 0.94696 149.521 0.94696C67.1401 0.94696 0.355103 67.7438 0.355103 150.148Z" fill="black"/>
</mask>
<g mask="url(#mask83_3_4407)">
<path d="M193.916 129.427C194.543 132.031 193.697 134.464 192.028 134.866C190.359 135.263 188.506 133.481 187.885 130.877C187.257 128.273 188.098 125.835 189.767 125.432C191.436 125.036 193.288 126.823 193.916 129.427Z" fill="#DCF9F3"/>
</g>
</g>
<mask id="mask84_3_4407" style="mask-type:alpha" maskUnits="userSpaceOnUse" x="207" y="173" width="53" height="63">
<path d="M207.055 173.84H259.079V235.896H207.055V173.84Z" fill="black"/>
</mask>
<g mask="url(#mask84_3_4407)">
<mask id="mask85_3_4407" style="mask-type:alpha" maskUnits="userSpaceOnUse" x="0" y="0" width="299" height="300">
<path d="M0.355042 150.148C0.355042 232.546 67.1401 299.343 149.521 299.343C231.901 299.343 298.686 232.546 298.686 150.148C298.686 67.7438 231.901 0.946899 149.521 0.946899C67.1401 0.946899 0.355042 67.7438 0.355042 150.148Z" fill="black"/>
</mask>
<g mask="url(#mask85_3_4407)">
<mask id="mask86_3_4407" style="mask-type:alpha" maskUnits="userSpaceOnUse" x="206" y="172" width="54" height="65">
<path d="M259.091 172.727H206.061V236.364H259.091V172.727Z" fill="black"/>
</mask>
<g mask="url(#mask86_3_4407)">
<mask id="mask87_3_4407" style="mask-type:alpha" maskUnits="userSpaceOnUse" x="207" y="173" width="53" height="63">
<path d="M207.055 173.84H259.079V235.896H207.055V173.84Z" fill="black"/>
</mask>
<g mask="url(#mask87_3_4407)">
<mask id="mask88_3_4407" style="mask-type:alpha" maskUnits="userSpaceOnUse" x="0" y="0" width="299" height="300">
<path d="M0.35498 150.148C0.35498 232.546 67.14 299.343 149.52 299.343C231.901 299.343 298.686 232.546 298.686 150.148C298.686 67.7438 231.901 0.946899 149.52 0.946899C67.14 0.946899 0.35498 67.7438 0.35498 150.148Z" fill="black"/>
</mask>
<g mask="url(#mask88_3_4407)">
<path d="M249.828 235.896H216.306C211.198 235.896 207.055 231.759 207.055 226.651V173.84H259.079V226.651C259.079 231.759 254.936 235.896 249.828 235.896Z" fill="#00A18D"/>
</g>
</g>
</g>
</g>
</g>
<mask id="mask89_3_4407" style="mask-type:alpha" maskUnits="userSpaceOnUse" x="201" y="162" width="63" height="16">
<path d="M201.515 162.121H263.636V177.273H201.515V162.121Z" fill="black"/>
</mask>
<g mask="url(#mask89_3_4407)">
<mask id="mask90_3_4407" style="mask-type:alpha" maskUnits="userSpaceOnUse" x="0" y="0" width="299" height="300">
<path d="M0.355042 150.148C0.355042 232.546 67.1401 299.343 149.521 299.343C231.901 299.343 298.686 232.546 298.686 150.148C298.686 67.7438 231.901 0.946899 149.521 0.946899C67.1401 0.946899 0.355042 67.7438 0.355042 150.148Z" fill="black"/>
</mask>
<g mask="url(#mask90_3_4407)">
<path d="M258.694 175.834H207.434C204.764 175.834 202.604 173.668 202.604 170.999V167.892C202.604 165.222 204.764 163.056 207.434 163.056H258.694C261.364 163.056 263.53 165.222 263.53 167.892V170.999C263.53 173.668 261.364 175.834 258.694 175.834Z" fill="#FEFEFC"/>
</g>
</g>
<mask id="mask91_3_4407" style="mask-type:alpha" maskUnits="userSpaceOnUse" x="207" y="162" width="6" height="16">
<path d="M207.576 162.121H212.121V177.273H207.576V162.121Z" fill="black"/>
</mask>
<g mask="url(#mask91_3_4407)">
<mask id="mask92_3_4407" style="mask-type:alpha" maskUnits="userSpaceOnUse" x="202" y="163" width="62" height="13">
<path d="M207.434 163.056C204.765 163.056 202.604 165.228 202.604 167.892V170.999C202.604 173.668 204.765 175.835 207.434 175.835H258.694C261.364 175.835 263.53 173.668 263.53 170.999V167.892C263.53 165.228 261.364 163.056 258.694 163.056H207.434Z" fill="black"/>
</mask>
<g mask="url(#mask92_3_4407)">
<path d="M208.89 180.735H211.393V158.156H208.89V180.735Z" fill="#D0E1FF"/>
</g>
</g>
<mask id="mask93_3_4407" style="mask-type:alpha" maskUnits="userSpaceOnUse" x="213" y="162" width="4" height="16">
<path d="M213.636 162.121H216.667V177.273H213.636V162.121Z" fill="black"/>
</mask>
<g mask="url(#mask93_3_4407)">
<mask id="mask94_3_4407" style="mask-type:alpha" maskUnits="userSpaceOnUse" x="202" y="163" width="62" height="13">
<path d="M207.434 163.056C204.765 163.056 202.604 165.228 202.604 167.892V170.999C202.604 173.668 204.765 175.835 207.434 175.835H258.694C261.364 175.835 263.53 173.668 263.53 170.999V167.892C263.53 165.228 261.364 163.056 258.694 163.056H207.434Z" fill="black"/>
</mask>
<g mask="url(#mask94_3_4407)">
<path d="M213.986 180.735H216.489V158.156H213.986V180.735Z" fill="#D0E1FF"/>
</g>
</g>
<mask id="mask95_3_4407" style="mask-type:alpha" maskUnits="userSpaceOnUse" x="203" y="162" width="5" height="16">
<path d="M203.03 162.121H207.576V177.273H203.03V162.121Z" fill="black"/>
</mask>
<g mask="url(#mask95_3_4407)">
<mask id="mask96_3_4407" style="mask-type:alpha" maskUnits="userSpaceOnUse" x="202" y="163" width="62" height="13">
<path d="M207.434 163.056C204.765 163.056 202.604 165.228 202.604 167.892V170.999C202.604 173.668 204.765 175.835 207.434 175.835H258.694C261.364 175.835 263.53 173.668 263.53 170.999V167.892C263.53 165.228 261.364 163.056 258.694 163.056H207.434Z" fill="black"/>
</mask>
<g mask="url(#mask96_3_4407)">
<path d="M203.8 180.735H206.303V158.156H203.8V180.735Z" fill="#D0E1FF"/>
</g>
</g>
<mask id="mask97_3_4407" style="mask-type:alpha" maskUnits="userSpaceOnUse" x="218" y="162" width="5" height="16">
<path d="M218.182 162.121H222.727V177.273H218.182V162.121Z" fill="black"/>
</mask>
<g mask="url(#mask97_3_4407)">
<mask id="mask98_3_4407" style="mask-type:alpha" maskUnits="userSpaceOnUse" x="202" y="163" width="62" height="13">
<path d="M207.434 163.056C204.765 163.056 202.604 165.228 202.604 167.892V170.999C202.604 173.668 204.765 175.835 207.434 175.835H258.694C261.364 175.835 263.53 173.668 263.53 170.999V167.892C263.53 165.228 261.364 163.056 258.694 163.056H207.434Z" fill="black"/>
</mask>
<g mask="url(#mask98_3_4407)">
<path d="M219.076 180.735H221.579V158.156H219.076V180.735Z" fill="#D0E1FF"/>
</g>
</g>
<mask id="mask99_3_4407" style="mask-type:alpha" maskUnits="userSpaceOnUse" x="222" y="162" width="6" height="16">
<path d="M222.727 162.121H227.273V177.273H222.727V162.121Z" fill="black"/>
</mask>
<g mask="url(#mask99_3_4407)">
<mask id="mask100_3_4407" style="mask-type:alpha" maskUnits="userSpaceOnUse" x="202" y="163" width="62" height="13">
<path d="M207.434 163.056C204.765 163.056 202.604 165.228 202.604 167.892V170.999C202.604 173.668 204.765 175.835 207.434 175.835H258.694C261.364 175.835 263.53 173.668 263.53 170.999V167.892C263.53 165.228 261.364 163.056 258.694 163.056H207.434Z" fill="black"/>
</mask>
<g mask="url(#mask100_3_4407)">
<path d="M224.172 180.735H226.675V158.156H224.172V180.735Z" fill="#D0E1FF"/>
</g>
</g>
<mask id="mask101_3_4407" style="mask-type:alpha" maskUnits="userSpaceOnUse" x="228" y="162" width="4" height="16">
<path d="M228.788 162.121H231.818V177.273H228.788V162.121Z" fill="black"/>
</mask>
<g mask="url(#mask101_3_4407)">
<mask id="mask102_3_4407" style="mask-type:alpha" maskUnits="userSpaceOnUse" x="202" y="163" width="62" height="13">
<path d="M207.434 163.056C204.764 163.056 202.604 165.228 202.604 167.892V170.999C202.604 173.668 204.764 175.835 207.434 175.835H258.694C261.364 175.835 263.53 173.668 263.53 170.999V167.892C263.53 165.228 261.364 163.056 258.694 163.056H207.434Z" fill="black"/>
</mask>
<g mask="url(#mask102_3_4407)">
<path d="M229.267 180.735H231.771V158.156H229.267V180.735Z" fill="#D0E1FF"/>
</g>
</g>
<mask id="mask103_3_4407" style="mask-type:alpha" maskUnits="userSpaceOnUse" x="233" y="162" width="5" height="16">
<path d="M233.333 162.121H237.879V177.273H233.333V162.121Z" fill="black"/>
</mask>
<g mask="url(#mask103_3_4407)">
<mask id="mask104_3_4407" style="mask-type:alpha" maskUnits="userSpaceOnUse" x="202" y="163" width="62" height="13">
<path d="M207.434 163.056C204.764 163.056 202.604 165.228 202.604 167.892V170.999C202.604 173.668 204.764 175.835 207.434 175.835H258.694C261.364 175.835 263.53 173.668 263.53 170.999V167.892C263.53 165.228 261.364 163.056 258.694 163.056H207.434Z" fill="black"/>
</mask>
<g mask="url(#mask104_3_4407)">
<path d="M234.357 180.735H236.861V158.156H234.357V180.735Z" fill="#D0E1FF"/>
</g>
</g>
<mask id="mask105_3_4407" style="mask-type:alpha" maskUnits="userSpaceOnUse" x="239" y="162" width="4" height="16">
<path d="M239.394 162.121H242.424V177.273H239.394V162.121Z" fill="black"/>
</mask>
<g mask="url(#mask105_3_4407)">
<mask id="mask106_3_4407" style="mask-type:alpha" maskUnits="userSpaceOnUse" x="202" y="163" width="62" height="13">
<path d="M207.434 163.056C204.765 163.056 202.604 165.228 202.604 167.892V170.999C202.604 173.668 204.765 175.835 207.434 175.835H258.694C261.364 175.835 263.53 173.668 263.53 170.999V167.892C263.53 165.228 261.364 163.056 258.694 163.056H207.434Z" fill="black"/>
</mask>
<g mask="url(#mask106_3_4407)">
<path d="M239.447 180.735H241.957V158.156H239.447V180.735Z" fill="#D0E1FF"/>
</g>
</g>
<mask id="mask107_3_4407" style="mask-type:alpha" maskUnits="userSpaceOnUse" x="243" y="162" width="6" height="16">
<path d="M243.939 162.121H248.485V177.273H243.939V162.121Z" fill="black"/>
</mask>
<g mask="url(#mask107_3_4407)">
<mask id="mask108_3_4407" style="mask-type:alpha" maskUnits="userSpaceOnUse" x="202" y="163" width="62" height="13">
<path d="M207.434 163.056C204.765 163.056 202.604 165.228 202.604 167.892V170.999C202.604 173.668 204.765 175.835 207.434 175.835H258.694C261.364 175.835 263.53 173.668 263.53 170.999V167.892C263.53 165.228 261.364 163.056 258.694 163.056H207.434Z" fill="black"/>
</mask>
<g mask="url(#mask108_3_4407)">
<path d="M244.543 180.735H247.047V158.156H244.543V180.735Z" fill="#D0E1FF"/>
</g>
</g>
<mask id="mask109_3_4407" style="mask-type:alpha" maskUnits="userSpaceOnUse" x="248" y="162" width="6" height="16">
<path d="M248.485 162.121H253.03V177.273H248.485V162.121Z" fill="black"/>
</mask>
<g mask="url(#mask109_3_4407)">
<mask id="mask110_3_4407" style="mask-type:alpha" maskUnits="userSpaceOnUse" x="202" y="163" width="62" height="13">
<path d="M207.434 163.056C204.765 163.056 202.604 165.228 202.604 167.892V170.999C202.604 173.668 204.765 175.835 207.434 175.835H258.694C261.364 175.835 263.53 173.668 263.53 170.999V167.892C263.53 165.228 261.364 163.056 258.694 163.056H207.434Z" fill="black"/>
</mask>
<g mask="url(#mask110_3_4407)">
<path d="M249.639 180.735H252.143V158.156H249.639V180.735Z" fill="#D0E1FF"/>
</g>
</g>
<mask id="mask111_3_4407" style="mask-type:alpha" maskUnits="userSpaceOnUse" x="254" y="162" width="4" height="16">
<path d="M254.545 162.121H257.576V177.273H254.545V162.121Z" fill="black"/>
</mask>
<g mask="url(#mask111_3_4407)">
<mask id="mask112_3_4407" style="mask-type:alpha" maskUnits="userSpaceOnUse" x="202" y="163" width="62" height="13">
<path d="M207.434 163.056C204.765 163.056 202.604 165.228 202.604 167.892V170.999C202.604 173.668 204.765 175.835 207.434 175.835H258.694C261.364 175.835 263.53 173.668 263.53 170.999V167.892C263.53 165.228 261.364 163.056 258.694 163.056H207.434Z" fill="black"/>
</mask>
<g mask="url(#mask112_3_4407)">
<path d="M254.729 180.735H257.233V158.156H254.729V180.735Z" fill="#D0E1FF"/>
</g>
</g>
<mask id="mask113_3_4407" style="mask-type:alpha" maskUnits="userSpaceOnUse" x="259" y="162" width="5" height="16">
<path d="M259.091 162.121H263.636V177.273H259.091V162.121Z" fill="black"/>
</mask>
<g mask="url(#mask113_3_4407)">
<mask id="mask114_3_4407" style="mask-type:alpha" maskUnits="userSpaceOnUse" x="202" y="163" width="62" height="13">
<path d="M207.434 163.056C204.765 163.056 202.604 165.228 202.604 167.892V170.999C202.604 173.668 204.765 175.835 207.434 175.835H258.694C261.364 175.835 263.53 173.668 263.53 170.999V167.892C263.53 165.228 261.364 163.056 258.694 163.056H207.434Z" fill="black"/>
</mask>
<g mask="url(#mask114_3_4407)">
<path d="M259.825 180.735H262.328V158.156H259.825V180.735Z" fill="#D0E1FF"/>
</g>
</g>
<mask id="mask115_3_4407" style="mask-type:alpha" maskUnits="userSpaceOnUse" x="209" y="224" width="28" height="13">
<path d="M209.091 224.242H236.364V236.364H209.091V224.242Z" fill="black"/>
</mask>
<g mask="url(#mask115_3_4407)">
<mask id="mask116_3_4407" style="mask-type:alpha" maskUnits="userSpaceOnUse" x="0" y="0" width="299" height="300">
<path d="M0.355103 150.148C0.355103 232.546 67.1401 299.343 149.521 299.343C231.901 299.343 298.686 232.546 298.686 150.148C298.686 67.7438 231.901 0.94696 149.521 0.94696C67.1401 0.94696 0.355103 67.7438 0.355103 150.148Z" fill="black"/>
</mask>
<g mask="url(#mask116_3_4407)">
<path d="M230.339 235.89L213.619 232.907C211.293 232.493 209.748 230.273 210.162 227.953C210.576 225.627 212.79 224.083 215.116 224.497L231.836 227.48C234.162 227.894 235.707 230.108 235.292 232.434C234.878 234.754 232.659 236.304 230.339 235.89Z" fill="#D6E3F5"/>
</g>
</g>
<mask id="mask117_3_4407" style="mask-type:alpha" maskUnits="userSpaceOnUse" x="209" y="224" width="16" height="13">
<path d="M209.091 224.242H224.242V236.364H209.091V224.242Z" fill="black"/>
</mask>
<g mask="url(#mask117_3_4407)">
<mask id="mask118_3_4407" style="mask-type:alpha" maskUnits="userSpaceOnUse" x="206" y="221" width="18" height="16">
<path d="M206.138 233.925L221.573 236.677L223.846 223.911L208.41 221.159L206.138 233.925Z" fill="black"/>
</mask>
<g mask="url(#mask118_3_4407)">
<path d="M230.339 235.89L213.619 232.907C211.293 232.493 209.748 230.273 210.162 227.953C210.577 225.627 212.79 224.083 215.116 224.497L231.836 227.48C234.162 227.894 235.707 230.108 235.292 232.434C234.878 234.754 232.659 236.304 230.339 235.89Z" fill="#1169CB"/>
</g>
</g>
<mask id="mask119_3_4407" style="mask-type:alpha" maskUnits="userSpaceOnUse" x="227" y="222" width="28" height="15">
<path d="M227.273 222.727H254.545V236.364H227.273V222.727Z" fill="black"/>
</mask>
<g mask="url(#mask119_3_4407)">
<mask id="mask120_3_4407" style="mask-type:alpha" maskUnits="userSpaceOnUse" x="0" y="0" width="299" height="300">
<path d="M0.355103 150.148C0.355103 232.546 67.1401 299.343 149.521 299.343C231.901 299.343 298.686 232.546 298.686 150.148C298.686 67.7438 231.901 0.946899 149.521 0.946899C67.1401 0.946899 0.355103 67.7438 0.355103 150.148Z" fill="black"/>
</mask>
<g mask="url(#mask120_3_4407)">
<path d="M250.515 232.226L233.902 235.76C231.593 236.245 229.326 234.771 228.835 232.463C228.35 230.155 229.824 227.888 232.126 227.397L248.745 223.869C251.054 223.378 253.32 224.852 253.812 227.16C254.297 229.468 252.823 231.741 250.515 232.226Z" fill="#D6E3F5"/>
</g>
</g>
<mask id="mask121_3_4407" style="mask-type:alpha" maskUnits="userSpaceOnUse" x="227" y="222" width="17" height="15">
<path d="M227.273 222.727H243.939V236.364H227.273V222.727Z" fill="black"/>
</mask>
<g mask="url(#mask121_3_4407)">
<mask id="mask122_3_4407" style="mask-type:alpha" maskUnits="userSpaceOnUse" x="224" y="223" width="19" height="17">
<path d="M224.657 226.829L227.356 239.512L242.691 236.257L239.998 223.568L224.657 226.829Z" fill="black"/>
</mask>
<g mask="url(#mask122_3_4407)">
<path d="M250.515 232.226L233.902 235.76C231.593 236.245 229.326 234.771 228.835 232.463C228.35 230.155 229.824 227.888 232.126 227.397L248.745 223.869C251.054 223.378 253.32 224.852 253.812 227.16C254.297 229.468 252.823 231.741 250.515 232.226Z" fill="#1169CB"/>
</g>
</g>
<mask id="mask123_3_4407" style="mask-type:alpha" maskUnits="userSpaceOnUse" x="218" y="216" width="26" height="12">
<path d="M218.182 216.667H243.939V227.273H218.182V216.667Z" fill="black"/>
</mask>
<g mask="url(#mask123_3_4407)">
<mask id="mask124_3_4407" style="mask-type:alpha" maskUnits="userSpaceOnUse" x="0" y="0" width="299" height="300">
<path d="M0.355103 150.148C0.355103 232.546 67.1401 299.343 149.521 299.343C231.901 299.343 298.686 232.546 298.686 150.148C298.686 67.7438 231.901 0.946899 149.521 0.946899C67.1401 0.946899 0.355103 67.7438 0.355103 150.148Z" fill="black"/>
</mask>
<g mask="url(#mask124_3_4407)">
<path d="M222.668 217.507H239.654C242.016 217.507 243.928 219.419 243.928 221.774C243.928 224.136 242.016 226.048 239.654 226.048H222.668C220.312 226.048 218.401 224.136 218.401 221.774C218.401 219.419 220.312 217.507 222.668 217.507Z" fill="#D6E3F5"/>
</g>
</g>
<mask id="mask125_3_4407" style="mask-type:alpha" maskUnits="userSpaceOnUse" x="231" y="216" width="13" height="12">
<path d="M231.161 216.667H243.939V227.273H231.161V216.667Z" fill="black"/>
</mask>
<g mask="url(#mask125_3_4407)">
<path d="M222.668 217.507H239.654C242.016 217.507 243.928 219.419 243.928 221.774C243.928 224.136 242.016 226.048 239.654 226.048H222.668C220.313 226.048 218.401 224.136 218.401 221.774C218.401 219.419 220.313 217.507 222.668 217.507Z" fill="#1169CB"/>
</g>
<mask id="mask126_3_4407" style="mask-type:alpha" maskUnits="userSpaceOnUse" x="206" y="204" width="26" height="21">
<path d="M206.061 204.545H231.818V224.242H206.061V204.545Z" fill="black"/>
</mask>
<g mask="url(#mask126_3_4407)">
<mask id="mask127_3_4407" style="mask-type:alpha" maskUnits="userSpaceOnUse" x="0" y="0" width="299" height="300">
<path d="M0.355042 150.148C0.355042 232.546 67.1401 299.343 149.521 299.343C231.901 299.343 298.686 232.546 298.686 150.148C298.686 67.7438 231.901 0.94696 149.521 0.94696C67.1401 0.94696 0.355042 67.7438 0.355042 150.148Z" fill="black"/>
</mask>
<g mask="url(#mask127_3_4407)">
<path d="M209.203 214.962L223.952 206.534C226 205.356 228.61 206.072 229.776 208.12C230.948 210.168 230.238 212.778 228.19 213.95L213.447 222.378C211.399 223.55 208.789 222.84 207.617 220.792C206.445 218.744 207.156 216.134 209.203 214.962Z" fill="#D6E3F5"/>
</g>
</g>
<mask id="mask128_3_4407" style="mask-type:alpha" maskUnits="userSpaceOnUse" x="215" y="204" width="17" height="18">
<path d="M215.151 204.545H231.818V221.212H215.151V204.545Z" fill="black"/>
</mask>
<g mask="url(#mask128_3_4407)">
<mask id="mask129_3_4407" style="mask-type:alpha" maskUnits="userSpaceOnUse" x="215" y="200" width="21" height="20">
<path d="M215.43 208.742L221.863 219.999L235.476 212.216L229.042 200.959L215.43 208.742Z" fill="black"/>
</mask>
<g mask="url(#mask129_3_4407)">
<path d="M209.203 214.962L223.952 206.534C226 205.356 228.61 206.072 229.776 208.12C230.948 210.168 230.238 212.778 228.19 213.95L213.447 222.378C211.399 223.55 208.789 222.84 207.617 220.792C206.445 218.744 207.156 216.134 209.203 214.962Z" fill="#1169CB"/>
</g>
</g>
<mask id="mask130_3_4407" style="mask-type:alpha" maskUnits="userSpaceOnUse" x="234" y="207" width="26" height="18">
<path d="M234.849 207.576H259.091V224.242H234.849V207.576Z" fill="black"/>
</mask>
<g mask="url(#mask130_3_4407)">
<mask id="mask131_3_4407" style="mask-type:alpha" maskUnits="userSpaceOnUse" x="0" y="0" width="299" height="300">
<path d="M0.355164 150.148C0.355164 232.546 67.1402 299.343 149.521 299.343C231.901 299.343 298.686 232.546 298.686 150.148C298.686 67.7438 231.901 0.946899 149.521 0.946899C67.1402 0.946899 0.355164 67.7438 0.355164 150.148Z" fill="black"/>
</mask>
<g mask="url(#mask131_3_4407)">
<path d="M241.335 208.156L256.333 216.134C258.416 217.241 259.209 219.827 258.102 221.91C256.99 223.994 254.403 224.787 252.32 223.674L237.328 215.696C235.245 214.589 234.452 212.003 235.559 209.919C236.665 207.836 239.252 207.049 241.335 208.156Z" fill="#D6E3F5"/>
</g>
</g>
<mask id="mask132_3_4407" style="mask-type:alpha" maskUnits="userSpaceOnUse" x="242" y="209" width="18" height="16">
<path d="M242.424 209.091H259.091V224.242H242.424V209.091Z" fill="black"/>
</mask>
<g mask="url(#mask132_3_4407)">
<mask id="mask133_3_4407" style="mask-type:alpha" maskUnits="userSpaceOnUse" x="243" y="210" width="21" height="19">
<path d="M243.833 221.549L257.676 228.918L263.766 217.466L249.923 210.103L243.833 221.549Z" fill="black"/>
</mask>
<g mask="url(#mask133_3_4407)">
<path d="M241.335 208.156L256.333 216.134C258.416 217.241 259.209 219.827 258.102 221.91C256.99 223.994 254.403 224.787 252.32 223.674L237.328 215.696C235.245 214.589 234.452 212.003 235.559 209.919C236.665 207.836 239.252 207.049 241.335 208.156Z" fill="#1169CB"/>
</g>
</g>
<mask id="mask134_3_4407" style="mask-type:alpha" maskUnits="userSpaceOnUse" x="221" y="206" width="26" height="14">
<path d="M221.212 206.061H246.97V219.697H221.212V206.061Z" fill="black"/>
</mask>
<g mask="url(#mask134_3_4407)">
<mask id="mask135_3_4407" style="mask-type:alpha" maskUnits="userSpaceOnUse" x="0" y="0" width="299" height="300">
<path d="M0.355164 150.148C0.355164 232.546 67.1402 299.343 149.521 299.343C231.901 299.343 298.686 232.546 298.686 150.148C298.686 67.7438 231.901 0.946899 149.521 0.946899C67.1402 0.946899 0.355164 67.7438 0.355164 150.148Z" fill="black"/>
</mask>
<g mask="url(#mask135_3_4407)">
<path d="M226.545 206.214L243.158 209.76C245.466 210.251 246.94 212.518 246.449 214.826C245.952 217.134 243.685 218.608 241.377 218.117L224.769 214.571C222.461 214.08 220.987 211.813 221.478 209.505C221.97 207.191 224.237 205.723 226.545 206.214Z" fill="#D6E3F5"/>
</g>
</g>
<mask id="mask136_3_4407" style="mask-type:alpha" maskUnits="userSpaceOnUse" x="231" y="206" width="16" height="14">
<path d="M231.818 206.061H246.97V219.697H231.818V206.061Z" fill="black"/>
</mask>
<g mask="url(#mask136_3_4407)">
<mask id="mask137_3_4407" style="mask-type:alpha" maskUnits="userSpaceOnUse" x="232" y="205" width="19" height="17">
<path d="M232.629 218.407L247.964 221.68L250.669 208.996L235.334 205.723L232.629 218.407Z" fill="black"/>
</mask>
<g mask="url(#mask137_3_4407)">
<path d="M226.545 206.214L243.158 209.76C245.466 210.251 246.94 212.518 246.449 214.826C245.952 217.134 243.685 218.608 241.377 218.117L224.769 214.571C222.461 214.08 220.987 211.813 221.478 209.505C221.97 207.191 224.237 205.723 226.545 206.214Z" fill="#1169CB"/>
</g>
</g>
<mask id="mask138_3_4407" style="mask-type:alpha" maskUnits="userSpaceOnUse" x="212" y="184" width="43" height="27">
<path d="M212.121 184.848H254.546V210.606H212.121V184.848Z" fill="black"/>
</mask>
<g mask="url(#mask138_3_4407)">
<mask id="mask139_3_4407" style="mask-type:alpha" maskUnits="userSpaceOnUse" x="0" y="0" width="299" height="300">
<path d="M0.355164 150.148C0.355164 232.546 67.1402 299.343 149.521 299.343C231.901 299.343 298.686 232.546 298.686 150.148C298.686 67.7438 231.901 0.946899 149.521 0.946899C67.1402 0.946899 0.355164 67.7438 0.355164 150.148Z" fill="black"/>
</mask>
<g mask="url(#mask139_3_4407)">
<path d="M249.544 210.215H216.584C214.234 210.215 212.334 208.31 212.334 205.96V189.897C212.334 187.553 214.234 185.647 216.584 185.647H249.544C251.894 185.647 253.8 187.553 253.8 189.897V205.96C253.8 208.31 251.894 210.215 249.544 210.215Z" fill="white"/>
</g>
</g>
<mask id="mask140_3_4407" style="mask-type:alpha" maskUnits="userSpaceOnUse" x="206" y="178" width="55" height="39">
<path d="M206.061 178.788H260.606V216.667H206.061V178.788Z" fill="black"/>
</mask>
<g mask="url(#mask140_3_4407)">
<mask id="mask141_3_4407" style="mask-type:alpha" maskUnits="userSpaceOnUse" x="0" y="0" width="299" height="300">
<path d="M0.355042 150.148C0.355042 232.546 67.1401 299.343 149.521 299.343C231.901 299.343 298.686 232.546 298.686 150.148C298.686 67.7438 231.901 0.946899 149.521 0.946899C67.1401 0.946899 0.355042 67.7438 0.355042 150.148Z" fill="black"/>
</mask>
<g mask="url(#mask141_3_4407)">
<path d="M248.224 208.653H217.909C215.808 208.653 214.11 206.954 214.11 204.853V191.004C214.11 188.909 215.808 187.21 217.909 187.21H248.224C250.319 187.21 252.024 188.909 252.024 191.004V204.853C252.024 206.954 250.319 208.653 248.224 208.653Z" stroke="#BACDEF" stroke-width="0.474667" stroke-miterlimit="10"/>
</g>
</g>
<mask id="mask142_3_4407" style="mask-type:alpha" maskUnits="userSpaceOnUse" x="218" y="192" width="31" height="4">
<path d="M218.182 192.424H248.485V195.454H218.182V192.424Z" fill="black"/>
</mask>
<g mask="url(#mask142_3_4407)">
<mask id="mask143_3_4407" style="mask-type:alpha" maskUnits="userSpaceOnUse" x="0" y="0" width="299" height="300">
<path d="M0.355103 150.148C0.355103 232.546 67.1401 299.343 149.521 299.343C231.901 299.343 298.686 232.546 298.686 150.148C298.686 67.7438 231.901 0.946899 149.521 0.946899C67.1401 0.946899 0.355103 67.7438 0.355103 150.148Z" fill="black"/>
</mask>
<g mask="url(#mask143_3_4407)">
<path d="M246.916 195.348H219.218C218.791 195.348 218.448 195.005 218.448 194.584V194.164C218.448 193.738 218.791 193.401 219.218 193.401H246.916C247.337 193.401 247.686 193.738 247.686 194.164V194.584C247.686 195.005 247.337 195.348 246.916 195.348Z" fill="#BACDEF"/>
</g>
</g>
<mask id="mask144_3_4407" style="mask-type:alpha" maskUnits="userSpaceOnUse" x="218" y="196" width="31" height="4">
<path d="M218.182 196.97H248.485V200H218.182V196.97Z" fill="black"/>
</mask>
<g mask="url(#mask144_3_4407)">
<mask id="mask145_3_4407" style="mask-type:alpha" maskUnits="userSpaceOnUse" x="0" y="0" width="299" height="300">
<path d="M0.355103 150.148C0.355103 232.546 67.1401 299.343 149.521 299.343C231.901 299.343 298.686 232.546 298.686 150.148C298.686 67.7438 231.901 0.946899 149.521 0.946899C67.1401 0.946899 0.355103 67.7438 0.355103 150.148Z" fill="black"/>
</mask>
<g mask="url(#mask145_3_4407)">
<path d="M246.916 198.994H219.218C218.791 198.994 218.448 198.65 218.448 198.224V197.81C218.448 197.384 218.791 197.041 219.218 197.041H246.916C247.337 197.041 247.686 197.384 247.686 197.81V198.224C247.686 198.65 247.337 198.994 246.916 198.994Z" fill="#90A6FF"/>
</g>
</g>
<mask id="mask146_3_4407" style="mask-type:alpha" maskUnits="userSpaceOnUse" x="218" y="200" width="31" height="4">
<path d="M218.182 200H248.485V203.03H218.182V200Z" fill="black"/>
</mask>
<g mask="url(#mask146_3_4407)">
<mask id="mask147_3_4407" style="mask-type:alpha" maskUnits="userSpaceOnUse" x="0" y="0" width="299" height="300">
<path d="M0.355103 150.148C0.355103 232.546 67.1401 299.343 149.521 299.343C231.901 299.343 298.686 232.546 298.686 150.148C298.686 67.7438 231.901 0.946899 149.521 0.946899C67.1401 0.946899 0.355103 67.7438 0.355103 150.148Z" fill="black"/>
</mask>
<g mask="url(#mask147_3_4407)">
<path d="M246.916 202.462H219.218C218.791 202.462 218.448 202.119 218.448 201.693V201.278C218.448 200.852 218.791 200.509 219.218 200.509H246.916C247.337 200.509 247.686 200.852 247.686 201.278V201.693C247.686 202.119 247.337 202.462 246.916 202.462Z" fill="#BACDEF"/>
</g>
</g>
</svg>
